<svg id="Laag_1" data-name="Laag 1" xmlns="http://www.w3.org/2000/svg" xmlns:xlink="http://www.w3.org/1999/xlink" viewBox="0 0 343.31 106.01"><defs><style>.cls-1,.cls-4{fill:none;}.cls-2{fill:#009fe3;}.cls-3{clip-path:url(#clip-path);}.cls-4{stroke:#009fe3;stroke-width:0.75px;}</style><clipPath id="clip-path" transform="translate(-128.29 -347.81)"><rect class="cls-1" x="107.28" y="320.71" width="488" height="145.98"/></clipPath></defs><path class="cls-2" d="M157.29,453.4h-29l8.57-27h29Zm-28-.75h27.43l8.1-25.55H137.41Z" transform="translate(-128.29 -347.81)"/><path class="cls-2" d="M440,453.4H411l8.57-27h29Zm-28-.75h27.44l8.1-25.55H420.13Z" transform="translate(-128.29 -347.81)"/><path class="cls-2" d="M191.16,453.4h-29l8.57-27h29Zm-28-.75h27.43l8.1-25.55H171.28Z" transform="translate(-128.29 -347.81)"/><path class="cls-2" d="M225.48,453.4h-29l8.57-27h29Zm-28-.75h27.44L233,427.1H205.59Z" transform="translate(-128.29 -347.81)"/><g class="cls-3"><path class="cls-4" d="M246.39,437a10.71,10.71,0,0,0-.94,1.86c-.3.73-.57,1.54-.83,2.41a5.12,5.12,0,0,1,1.16-.47,5.54,5.54,0,0,1,1.15-.11,3,3,0,0,1,2.81,1.19l1.54,2.54a.92.92,0,0,1,.19.58,4.14,4.14,0,0,1-.08.65,7.59,7.59,0,0,1-.23.91c-.1.32-.21.65-.33,1a8.41,8.41,0,0,1-.36.94,8.51,8.51,0,0,1-3,3.56,7.79,7.79,0,0,1-4.39,1.25,4,4,0,0,1-1.32-.2,3.6,3.6,0,0,1-1.14-.65l-2.77-2.19c-1.69-1.34-2.54-3.46-2.54-6.39a22.48,22.48,0,0,1,.85-6.09,19.42,19.42,0,0,1,2.35-5.41q3.22-5.07,8.34-5.08a6.39,6.39,0,0,1,2.73.52,4.28,4.28,0,0,1,1.77,1.64l1.5,2.38a5.55,5.55,0,0,1,.89,3q0,4.2-3.43,4.2a4.76,4.76,0,0,1-1.15-.1,2.34,2.34,0,0,1-.81-.4Zm-.34-1.91a1.74,1.74,0,0,0-.08.42c0,.64.6,1,1.81,1a3.61,3.61,0,0,0,2.79-.92,4.48,4.48,0,0,0,.82-3,4.68,4.68,0,0,0-1.15-3.43,4.61,4.61,0,0,0-3.43-1.17q-4.68,0-7.76,4.8a18.81,18.81,0,0,0-2.29,5.24,22,22,0,0,0-.83,5.9,9.87,9.87,0,0,0,.38,2.8,7.23,7.23,0,0,0,1.08,2.19,4.79,4.79,0,0,0,1.66,1.42,4.53,4.53,0,0,0,2.11.5,7,7,0,0,0,4.06-1.29,8.88,8.88,0,0,0,2.94-3.52,10.72,10.72,0,0,0,.67-1.85,6.06,6.06,0,0,0,.29-1.57,1.1,1.1,0,0,0-.11-.56,1.08,1.08,0,0,0-.5-.33,2.43,2.43,0,0,0-.77-.27,4.89,4.89,0,0,0-.85-.08,3.87,3.87,0,0,0-1.81.41,2.26,2.26,0,0,0-1.07,1.09l-.31.77c-.33.8-.76,1.2-1.27,1.2s-1-.44-1-1.31a11.24,11.24,0,0,1,.17-1.75c.12-.68.27-1.39.46-2.13s.41-1.46.64-2.17a15.38,15.38,0,0,1,.73-1.86,6.25,6.25,0,0,1,1.09-1.74,1.51,1.51,0,0,1,1.06-.52c.44,0,.66.24.66.73a2.3,2.3,0,0,1-.08.5Z" transform="translate(-128.29 -347.81)"/><path class="cls-4" d="M267.19,428a4.88,4.88,0,0,1,.88-.61,1.86,1.86,0,0,1,.85-.19,1.9,1.9,0,0,1,1.58.88l1.58,2.19q1.74,2.43,1.74,7a23.17,23.17,0,0,1-.81,6.1,20.3,20.3,0,0,1-2.28,5.37,10.64,10.64,0,0,1-3.31,3.5,7.36,7.36,0,0,1-4,1.23,5.83,5.83,0,0,1-3.39-1l-2.54-1.77a8.18,8.18,0,0,1-2.82-3.36,11.6,11.6,0,0,1-1-4.87,16.1,16.1,0,0,1,.25-2.77,24.27,24.27,0,0,1,.69-2.89A23,23,0,0,1,255.7,434a15.29,15.29,0,0,1,1.35-2.34,13.65,13.65,0,0,1,1.64-1.91,10.55,10.55,0,0,1,3.95-2.4,6.26,6.26,0,0,1,2-.35,1.66,1.66,0,0,1,1.19.35,2.9,2.9,0,0,1,.54,1.46Zm-1.58,1a1.55,1.55,0,0,0,0-.29v-.24a.7.7,0,0,0-.29-.57,1.22,1.22,0,0,0-.79-.23,6.14,6.14,0,0,0-2.49.65,11.13,11.13,0,0,0-2.64,1.73,11.61,11.61,0,0,0-2,2.36,17.31,17.31,0,0,0-1.6,3.09,21.64,21.64,0,0,0-1.06,3.54,17.63,17.63,0,0,0-.39,3.68,10.15,10.15,0,0,0,.52,3.25,9.18,9.18,0,0,0,1.41,2.65,6.49,6.49,0,0,0,2.09,1.76,5.47,5.47,0,0,0,2.6.64,7.57,7.57,0,0,0,4.62-1.63,12.59,12.59,0,0,0,3.61-4.67,22.06,22.06,0,0,0,1.6-4.67,22.78,22.78,0,0,0,.59-5,19.34,19.34,0,0,0-.19-2.82,12.68,12.68,0,0,0-.52-2.28,4.49,4.49,0,0,0-.78-1.52,1.32,1.32,0,0,0-1-.56,1.84,1.84,0,0,0-1.22.61l-2.34,2.12Zm-.58,2.9a10.41,10.41,0,0,1,.44,1.77,13,13,0,0,1,.14,2,15.65,15.65,0,0,1-.37,3.29,17.52,17.52,0,0,1-.94,3,10.19,10.19,0,0,1-1.27,2.25,1.85,1.85,0,0,1-1.38.88,1.27,1.27,0,0,1-1.1-.79,3.84,3.84,0,0,1-.44-1.94,11.84,11.84,0,0,1,.32-2.56,14.93,14.93,0,0,1,.95-2.75,9.28,9.28,0,0,1,1.11-1.92,6.76,6.76,0,0,1,1.54-1.38,2.57,2.57,0,0,0,.58-.48,4,4,0,0,0,.27-.72,1.59,1.59,0,0,0,.05-.28A1.86,1.86,0,0,1,265,431.87Zm-2.39,11.65a7.73,7.73,0,0,0,1.29-2.4,13.94,13.94,0,0,0,.71-3.25,7.43,7.43,0,0,0-.73,1.21q-.35.72-.63,1.5a12.5,12.5,0,0,0-.47,1.56A6.72,6.72,0,0,0,262.64,443.52Z" transform="translate(-128.29 -347.81)"/><path class="cls-4" d="M286.78,444.1a1.31,1.31,0,0,1,1.15.54l1.73,2.77a1,1,0,0,1,.23.62,3.28,3.28,0,0,1-.11.59l-.27,1.06-.31,1.15a5.79,5.79,0,0,1-.27.85,1.64,1.64,0,0,1-1.61,1.19h-6a2.85,2.85,0,0,1-.66-.06,1.11,1.11,0,0,1-.46-.25l-2.65-2.07a5.64,5.64,0,0,1-1-1,10.13,10.13,0,0,1-.93-1.35,13.21,13.21,0,0,1-.67-1.37,2.92,2.92,0,0,1-.27-1.07,11.34,11.34,0,0,1,.25-1.66c.17-.82.39-1.71.68-2.69l2.46-9.19c.1-.36.23-.84.4-1.44s.37-1.28.6-2a2.9,2.9,0,0,1,.73-1.33,2,2,0,0,1,1.31-.37,9.46,9.46,0,0,1,1.88.23,13.39,13.39,0,0,1,2,.58,2.55,2.55,0,0,1,.64.39,1.94,1.94,0,0,1,.4.57l.48.81c.17.28.35.6.56,1a3.41,3.41,0,0,1,.58,1.39,3,3,0,0,1,0,.32,4.32,4.32,0,0,1-.12.45l-3.19,11.38Zm-1.62-13.88c.11-.36.16-.58.18-.66a2.28,2.28,0,0,0,0-.31.7.7,0,0,0-.27-.61,5.26,5.26,0,0,0-1.27-.5,10.94,10.94,0,0,0-2.85-.5,1.55,1.55,0,0,0-.62.1c-.15.06-.31.28-.48.67a16.8,16.8,0,0,0-.59,1.81c-.23.82-.55,2-1,3.53l-1.73,6.2c-.13.43-.25.9-.37,1.4s-.24,1-.37,1.6a9.59,9.59,0,0,1-.19,1c-.07.31-.15.63-.23,1a3.9,3.9,0,0,0-.11.77,4.1,4.1,0,0,0,.57,1.67,10.56,10.56,0,0,0,1.43,2.06,6.19,6.19,0,0,0,.46.54,2.08,2.08,0,0,0,.36.29,1,1,0,0,0,.41.11,5.26,5.26,0,0,0,.61,0l5.5,0a2.41,2.41,0,0,0,1.12-.13,1.66,1.66,0,0,0,.61-.6,8.33,8.33,0,0,0,.41-1c.14-.4.27-.81.4-1.23s.23-.83.31-1.21a4.57,4.57,0,0,0,.11-.89c0-.41-.26-.61-.8-.61l-5.73.15Z" transform="translate(-128.29 -347.81)"/><path class="cls-4" d="M303.17,444.1a1.32,1.32,0,0,1,1.15.54l1.73,2.77a1.06,1.06,0,0,1,.23.62,4.68,4.68,0,0,1-.11.59l-.27,1.06-.31,1.15a5.79,5.79,0,0,1-.27.85,1.65,1.65,0,0,1-1.62,1.19h-6a2.7,2.7,0,0,1-.65-.06,1.05,1.05,0,0,1-.46-.25l-2.66-2.07a6.43,6.43,0,0,1-1-1,11.08,11.08,0,0,1-.92-1.35,11.46,11.46,0,0,1-.67-1.37,2.92,2.92,0,0,1-.27-1.07,10.06,10.06,0,0,1,.25-1.66c.16-.82.39-1.71.67-2.69l2.46-9.19c.11-.36.24-.84.41-1.44s.36-1.28.59-2a3,3,0,0,1,.73-1.33,2,2,0,0,1,1.31-.37,9.47,9.47,0,0,1,1.89.23,13.77,13.77,0,0,1,2,.58,2.46,2.46,0,0,1,.63.39,2,2,0,0,1,.41.57l.48.81.56,1A3.35,3.35,0,0,1,304,432a1.6,1.6,0,0,1,0,.32,2.68,2.68,0,0,1-.11.45l-3.19,11.38Zm-1.62-13.88c.1-.36.16-.58.17-.66a2.28,2.28,0,0,0,0-.31.7.7,0,0,0-.27-.61,5.07,5.07,0,0,0-1.27-.5,10.81,10.81,0,0,0-2.84-.5,1.51,1.51,0,0,0-.62.1c-.15.06-.31.28-.48.67a14.45,14.45,0,0,0-.6,1.81c-.23.82-.55,2-1,3.53L293,440c-.13.43-.25.9-.36,1.4s-.24,1-.37,1.6c-.05.33-.12.65-.19,1s-.16.63-.23,1a4.15,4.15,0,0,0-.12.77,4,4,0,0,0,.58,1.67,10.51,10.51,0,0,0,1.42,2.06c.18.23.34.41.46.54a1.79,1.79,0,0,0,.37.29,1,1,0,0,0,.4.11,5.45,5.45,0,0,0,.62,0l5.5,0a2.45,2.45,0,0,0,1.12-.13,1.66,1.66,0,0,0,.61-.6,8.49,8.49,0,0,0,.4-1c.14-.4.28-.81.41-1.23s.23-.83.31-1.21a5.53,5.53,0,0,0,.11-.89c0-.41-.27-.61-.81-.61l-5.73.15Z" transform="translate(-128.29 -347.81)"/><path class="cls-4" d="M322.51,447.33a5.58,5.58,0,0,1,.56.95,2.1,2.1,0,0,1,.1.71,6.12,6.12,0,0,1-.18,1.29,8.93,8.93,0,0,1-.48,1.55,1.93,1.93,0,0,1-.69.93,2.4,2.4,0,0,1-1.27.27h-2.62l-1.3,0-1,0-1.37,0a5.91,5.91,0,0,1-.77-.08,1.49,1.49,0,0,1-.5-.19,5.27,5.27,0,0,1-.52-.41l-2.38-1.84a6.5,6.5,0,0,1-1.56-1.64,3.29,3.29,0,0,1-.48-1.75,6.11,6.11,0,0,1,.15-1.15l.62-2.85a1.21,1.21,0,0,1-.93-1.35,7,7,0,0,1,.08-.92c.05-.36.12-.73.19-1.11s.16-.75.25-1.08a4.91,4.91,0,0,1,.29-.81,2,2,0,0,1,.69-.88,2.8,2.8,0,0,1,1.16-.31l.54-2.19a1.39,1.39,0,0,1-1.5-1.54,8.21,8.21,0,0,1,.27-1.64,20,20,0,0,1,.61-2.09,4,4,0,0,1,.5-1,1.72,1.72,0,0,1,1-.54,10.52,10.52,0,0,1,2.14-.21c.93,0,2.22,0,3.86,0h.42l4.51.12c.4,0,.75,0,1,0a4,4,0,0,1,.66.12,1.15,1.15,0,0,1,.4.19,1.37,1.37,0,0,1,.31.35l1.73,2.54a2.55,2.55,0,0,1,.23.4,1.16,1.16,0,0,1,0,.4,7.53,7.53,0,0,1-.19,1.47,10.85,10.85,0,0,1-.5,1.69A3.22,3.22,0,0,1,326,436a1.55,1.55,0,0,1-1,.27h-.33l-.94,0-.93,0-3.23,0-.54,0a2.92,2.92,0,0,0-.46,0l.23.39h1.7l1.17.07a3.31,3.31,0,0,1,.81.16,1.6,1.6,0,0,1,.53.3,3.21,3.21,0,0,1,.41.47l1.27,2a2.43,2.43,0,0,1,.34.48,1,1,0,0,1,0,.36,10.46,10.46,0,0,1-.69,3.16,4.44,4.44,0,0,1-.63,1.21,1,1,0,0,1-.83.32h-.42l-.27,0h-1.23Zm-5.42-11.65a2.92,2.92,0,0,0,0-.46c0-.31-.31-.61-.93-.89l-1.34-.65,7,.07h.73a1.36,1.36,0,0,0,1.31-.57,5.43,5.43,0,0,0,.42-.9,8.52,8.52,0,0,0,.33-1.08c.09-.39.16-.76.23-1.13a6.24,6.24,0,0,0,.09-1,1.67,1.67,0,0,0-.05-.49.46.46,0,0,0-.27-.29,2,2,0,0,0-.62-.13c-.27,0-.65-.05-1.13-.08l-4.27-.08-3.12,0-1.92,0a7.72,7.72,0,0,0-1.08.08,4.67,4.67,0,0,0-.58.13,1.91,1.91,0,0,0-.32.17.83.83,0,0,0-.25.35,4.61,4.61,0,0,0-.25.69c-.09.29-.21.68-.37,1.16a10.83,10.83,0,0,0-.32,1.36,6.38,6.38,0,0,0-.14,1c0,.46.37.69,1.12.69h.65l-1,3.53a5.76,5.76,0,0,0-1.18.14.88.88,0,0,0-.5.52,5.78,5.78,0,0,0-.27.71,9.21,9.21,0,0,0-.28,1c-.08.37-.14.73-.19,1.08a5,5,0,0,0-.08.86,1,1,0,0,0,.21.73,1.63,1.63,0,0,0,.87.27l-.81,3.66a3.33,3.33,0,0,0-.12.84,2.94,2.94,0,0,0,.63,1.75,3.88,3.88,0,0,0,1.56,1.29,5.91,5.91,0,0,0,2.35.42h.31l1,0h3.65c.36,0,.65,0,.87,0a1.25,1.25,0,0,0,.56-.2,1,1,0,0,0,.36-.46c.09-.2.2-.47.33-.8a12,12,0,0,0,.38-1.37,5.35,5.35,0,0,0,.16-1.17,1,1,0,0,0-.27-.79,1.81,1.81,0,0,0-1-.21h-.35l-4.77.11.77-3.15,3.54.07h.73a4.9,4.9,0,0,1,.54,0h.54a1,1,0,0,0,.81-.29,3.93,3.93,0,0,0,.61-1.21c.21-.61.38-1.2.52-1.77a5.93,5.93,0,0,0,.21-1.38.57.57,0,0,0-.34-.6,5.43,5.43,0,0,0-1.54-.13H316.7Z" transform="translate(-128.29 -347.81)"/><path class="cls-4" d="M337.71,437a10.7,10.7,0,0,0-.95,1.86c-.29.73-.57,1.54-.82,2.41a5.07,5.07,0,0,1,1.15-.47,5.61,5.61,0,0,1,1.15-.11,3,3,0,0,1,2.81,1.19l1.54,2.54a.86.86,0,0,1,.19.58,3.89,3.89,0,0,1-.07.65,7.73,7.73,0,0,1-.24.91l-.32,1c-.12.34-.24.66-.37.94a8.44,8.44,0,0,1-3,3.56,7.78,7.78,0,0,1-4.38,1.25,4,4,0,0,1-1.33-.2,3.71,3.71,0,0,1-1.14-.65l-2.77-2.19c-1.69-1.34-2.53-3.46-2.53-6.39a22.87,22.87,0,0,1,.84-6.09,20,20,0,0,1,2.35-5.41q3.22-5.07,8.35-5.08a6.39,6.39,0,0,1,2.73.52,4.4,4.4,0,0,1,1.77,1.64l1.5,2.38a5.62,5.62,0,0,1,.88,3q0,4.2-3.42,4.2a4.8,4.8,0,0,1-1.16-.1,2.39,2.39,0,0,1-.8-.4Zm-.35-1.91a2.49,2.49,0,0,0-.08.42c0,.64.6,1,1.81,1a3.58,3.58,0,0,0,2.79-.92,4.48,4.48,0,0,0,.83-3,4.68,4.68,0,0,0-1.16-3.43,4.6,4.6,0,0,0-3.42-1.17q-4.69,0-7.77,4.8a18.81,18.81,0,0,0-2.29,5.24,22,22,0,0,0-.83,5.9,9.52,9.52,0,0,0,.39,2.8,7,7,0,0,0,1.07,2.19,5,5,0,0,0,1.66,1.42,4.56,4.56,0,0,0,2.11.5,7,7,0,0,0,4.06-1.29,8.72,8.72,0,0,0,2.94-3.52,10.71,10.71,0,0,0,.68-1.85,6.53,6.53,0,0,0,.29-1.57,1,1,0,0,0-.12-.56,1,1,0,0,0-.5-.33,2.43,2.43,0,0,0-.77-.27,4.78,4.78,0,0,0-.84-.08,3.81,3.81,0,0,0-1.81.41,2.28,2.28,0,0,0-1.08,1.09l-.31.77c-.33.8-.75,1.2-1.27,1.2s-1-.44-1-1.31a10.27,10.27,0,0,1,.18-1.75,21,21,0,0,1,.46-2.13c.19-.74.4-1.46.63-2.17a17.23,17.23,0,0,1,.73-1.86,6.23,6.23,0,0,1,1.1-1.74,1.49,1.49,0,0,1,1.06-.52c.43,0,.65.24.65.73a2.3,2.3,0,0,1-.08.5Z" transform="translate(-128.29 -347.81)"/><path class="cls-4" d="M358.09,436.75a1.61,1.61,0,0,1,.35.45.86.86,0,0,1,.07.36c0,.13,0,.26,0,.39l-.06.38-3.35,13.54a1.57,1.57,0,0,1-.59,1,2.63,2.63,0,0,1-1.33.25,8.72,8.72,0,0,1-2-.21,4,4,0,0,1-1.48-.63l-2.58-1.77a1.2,1.2,0,0,1-.66-1c0-.13,0-.3,0-.5s.07-.41.12-.62l3-12.46h-.46a.92.92,0,0,1-.37-.06l-.52-.25L346,434a1.9,1.9,0,0,1-.8-1.77,8.72,8.72,0,0,1,.23-1.82,8.19,8.19,0,0,1,.53-1.75,2.34,2.34,0,0,1,2.31-1.23H357c.92,0,1.64,0,2.17,0a8.92,8.92,0,0,1,1.23.09,1.58,1.58,0,0,1,.63.21,1.72,1.72,0,0,1,.39.41l1.77,2.54a1.37,1.37,0,0,1,.31.77,4.63,4.63,0,0,1-.08.67c0,.29-.12.61-.19.94s-.17.67-.27,1-.19.62-.27.85a1.32,1.32,0,0,1-.52.73,1.77,1.77,0,0,1-.9.19l-4,0Zm-7-3.26c-.1.3-.23.69-.37,1.15s-.27.93-.4,1.4-.25.91-.37,1.31-.18.67-.21.83l-2.46,10.23c-.1.38-.16.62-.17.69a.72.72,0,0,0,0,.19c0,.39.35.72,1.06,1a7.24,7.24,0,0,0,2.52.4,5,5,0,0,0,.86-.06,1.33,1.33,0,0,0,.54-.21,1.12,1.12,0,0,0,.35-.44,4.37,4.37,0,0,0,.25-.79l3.11-12.81c.1-.36.17-.61.19-.75a1.94,1.94,0,0,0,0-.4.88.88,0,0,0-.27-.68,3.66,3.66,0,0,0-1-.55l-1.35-.54h5.19a1.86,1.86,0,0,0,1.17-.27,2.78,2.78,0,0,0,.64-1.19,11.45,11.45,0,0,0,.4-1.52,7.08,7.08,0,0,0,.18-1.29,1.89,1.89,0,0,0-.08-.58.6.6,0,0,0-.35-.35,2.8,2.8,0,0,0-.73-.15c-.31,0-.73,0-1.27,0h-10.5a1.67,1.67,0,0,0-1.11.31,2.69,2.69,0,0,0-.62,1.19,11,11,0,0,0-.46,2.81c0,.51.09.83.27.94a3.13,3.13,0,0,0,1.38.18Z" transform="translate(-128.29 -347.81)"/><path class="cls-4" d="M374.25,431.25a2.15,2.15,0,0,1,.23.77,2.87,2.87,0,0,1-.12.64l-.42,1.52c-.75,2.59-1.46,5.22-2.16,7.9s-1.38,5.51-2.07,8.48q-.24.81-.39,1.29a1.74,1.74,0,0,1-.38.71,1.06,1.06,0,0,1-.6.29,6,6,0,0,1-.94.06,7.31,7.31,0,0,1-2-.27,5.45,5.45,0,0,1-1.67-.77l-2.35-1.65a2.8,2.8,0,0,1-.77-.77,1.89,1.89,0,0,1-.23-1,4.11,4.11,0,0,1,.06-.64c0-.24.09-.56.17-.94s.18-.85.31-1.4.29-1.22.5-2c.15-.59.31-1.17.46-1.77s.29-1.19.42-1.8c.29-1.08.66-2.46,1.14-4.14s1.07-3.68,1.79-6a7.9,7.9,0,0,1,.46-1.3,2,2,0,0,1,.56-.77,1.8,1.8,0,0,1,.8-.37,6.92,6.92,0,0,1,1.25-.1,8.77,8.77,0,0,1,2.62.37,2.83,2.83,0,0,1,1.54.94Zm-6,12.77c.41-1.64.77-3,1.06-4.21s.58-2.23.85-3.21l.79-2.85c.25-.92.56-2,.92-3.11a3.7,3.7,0,0,0,.19-.65,2.49,2.49,0,0,0,0-.47,1.12,1.12,0,0,0-.23-.73,1.78,1.78,0,0,0-.81-.46,8.25,8.25,0,0,0-1.5-.34,11,11,0,0,0-1.61-.12,3.56,3.56,0,0,0-.79.08,1.12,1.12,0,0,0-.56.29,1.7,1.7,0,0,0-.4.61,8.67,8.67,0,0,0-.37,1.1l-.21.73q-.11.3-.21.69c-.08.26-.18.56-.29.92s-.26.84-.44,1.43-.45,1.51-.71,2.46-.54,1.94-.81,3l-.81,3.11c-.27,1-.5,2-.69,2.87s-.36,1.61-.48,2.21a8.08,8.08,0,0,0-.2,1.14c0,.56.41,1,1.22,1.38a7.61,7.61,0,0,0,3.09.54,3.77,3.77,0,0,0,.75-.06.89.89,0,0,0,.48-.27,1.71,1.71,0,0,0,.33-.55,8.9,8.9,0,0,0,.29-.93,4.39,4.39,0,0,1,.19-.88c.05-.26.12-.51.19-.75s.14-.48.2-.71Z" transform="translate(-128.29 -347.81)"/><path class="cls-4" d="M389.21,447.33a6.39,6.39,0,0,1,.56.95,2.15,2.15,0,0,1,.09.71,6.72,6.72,0,0,1-.17,1.29,11.07,11.07,0,0,1-.48,1.55,1.93,1.93,0,0,1-.69.93,2.42,2.42,0,0,1-1.27.27h-2.62l-1.31,0-1,0L381,453a5.91,5.91,0,0,1-.77-.08,1.49,1.49,0,0,1-.5-.19,4.31,4.31,0,0,1-.52-.41l-2.39-1.84a6.43,6.43,0,0,1-1.55-1.64,3.21,3.21,0,0,1-.49-1.75,6.29,6.29,0,0,1,.16-1.15l.61-2.85a1.21,1.21,0,0,1-.92-1.35,7,7,0,0,1,.08-.92c.05-.36.11-.73.19-1.11s.16-.75.25-1.08a4.91,4.91,0,0,1,.29-.81,1.91,1.91,0,0,1,.69-.88,2.75,2.75,0,0,1,1.16-.31l.53-2.19a1.39,1.39,0,0,1-1.5-1.54,8.21,8.21,0,0,1,.27-1.64,20,20,0,0,1,.62-2.09,3.72,3.72,0,0,1,.5-1,1.72,1.72,0,0,1,1-.54,10.41,10.41,0,0,1,2.13-.21c.94,0,2.23,0,3.87,0h.42l4.5.12q.62,0,1,0a3.63,3.63,0,0,1,.65.12,1.2,1.2,0,0,1,.41.19,1.59,1.59,0,0,1,.31.35l1.73,2.54a3.88,3.88,0,0,1,.23.4,1.49,1.49,0,0,1,0,.4,7.69,7.69,0,0,1-.2,1.47,9,9,0,0,1-.5,1.69,3.24,3.24,0,0,1-.65,1.27,1.58,1.58,0,0,1-1,.27h-.33l-.94,0-.92,0-3.23,0-.54,0a2.92,2.92,0,0,0-.46,0l.23.39h1.69l1.17.07a3.31,3.31,0,0,1,.81.16,1.55,1.55,0,0,1,.54.3,2.67,2.67,0,0,1,.4.47l1.27,2a2.69,2.69,0,0,1,.35.48,1,1,0,0,1,0,.36,10.46,10.46,0,0,1-.69,3.16,4.4,4.4,0,0,1-.64,1.21,1,1,0,0,1-.83.32h-.42l-.27,0h-1.23Zm-5.42-11.65a3,3,0,0,0,0-.46c0-.31-.3-.61-.92-.89l-1.35-.65,7,.07h.74a1.34,1.34,0,0,0,1.3-.57,4.72,4.72,0,0,0,.43-.9,10.54,10.54,0,0,0,.32-1.08c.09-.39.17-.76.23-1.13a5.33,5.33,0,0,0,.1-1,1.63,1.63,0,0,0-.06-.49.46.46,0,0,0-.27-.29,1.93,1.93,0,0,0-.61-.13c-.27,0-.65-.05-1.14-.08l-4.27-.08-3.11,0-1.92,0a7.72,7.72,0,0,0-1.08.08,4.67,4.67,0,0,0-.58.13,1.69,1.69,0,0,0-.33.17.93.93,0,0,0-.25.35,6.1,6.1,0,0,0-.25.69l-.36,1.16a12.89,12.89,0,0,0-.33,1.36,6.05,6.05,0,0,0-.13,1q0,.69,1.11.69h.66l-1,3.53a5.89,5.89,0,0,0-1.19.14.9.9,0,0,0-.49.52,4.49,4.49,0,0,0-.27.71,9.21,9.21,0,0,0-.28,1c-.08.37-.14.73-.2,1.08a6.23,6.23,0,0,0-.08.86.94.94,0,0,0,.22.73,1.59,1.59,0,0,0,.86.27l-.81,3.66a3.8,3.8,0,0,0-.11.84,2.94,2.94,0,0,0,.63,1.75,3.88,3.88,0,0,0,1.56,1.29,5.85,5.85,0,0,0,2.35.42h.31l1,0h3.65c.36,0,.65,0,.87,0a1.21,1.21,0,0,0,.55-.2,1,1,0,0,0,.37-.46c.09-.2.2-.47.33-.8a12,12,0,0,0,.38-1.37,5.91,5.91,0,0,0,.15-1.17,1,1,0,0,0-.26-.79,1.81,1.81,0,0,0-1-.21h-.35l-4.77.11.77-3.15,3.54.07h.73a4.9,4.9,0,0,1,.54,0h.54a1,1,0,0,0,.8-.29,3.89,3.89,0,0,0,.62-1.21c.21-.61.38-1.2.52-1.77a5.93,5.93,0,0,0,.21-1.38.56.56,0,0,0-.35-.6,5.35,5.35,0,0,0-1.53-.13H383.4Z" transform="translate(-128.29 -347.81)"/><path class="cls-4" d="M402.33,447.76c-.11.43-.25,1-.45,1.82s-.39,1.51-.59,2.18a2.85,2.85,0,0,1-.52,1.07,1.06,1.06,0,0,1-.83.31,6.79,6.79,0,0,1-1.15-.1,10.78,10.78,0,0,1-1.23-.26,8,8,0,0,1-1.16-.43,5.2,5.2,0,0,1-.92-.52l-2-1.42a1.66,1.66,0,0,1-.77-1.27v-.27a1.17,1.17,0,0,1,0-.29c0-.11.06-.26.11-.44s.12-.42.19-.73l.16-.69.85-3.5q-1.08-.15-1.08-1.47a5.39,5.39,0,0,1,.07-.76,9.34,9.34,0,0,1,.24-1.06l.3-1.1a7.52,7.52,0,0,1,.35-1,1.73,1.73,0,0,1,.58-.81,3.91,3.91,0,0,1,1.19-.42l.58-2.35h-.77a1.07,1.07,0,0,1-.85-.36,1.36,1.36,0,0,1-.31-.91,5.4,5.4,0,0,1,.08-.78q.07-.48.21-1a11.12,11.12,0,0,1,.33-1.08c.13-.36.25-.69.38-1a5.47,5.47,0,0,1,.39-.77,1.47,1.47,0,0,1,.48-.48,2,2,0,0,1,.73-.25,11.24,11.24,0,0,1,1.13-.12l1.16,0,1.44,0,1.48,0,1.31,0c1.13,0,2,0,2.77,0a16.93,16.93,0,0,1,1.75.13,3.56,3.56,0,0,1,1,.27,1.62,1.62,0,0,1,.52.44l1.77,2.5a1.28,1.28,0,0,1,.23.37,1.49,1.49,0,0,1,0,.33,6.84,6.84,0,0,1-.18,1.23,15,15,0,0,1-.44,1.69,3.3,3.3,0,0,1-.65,1.27,1.37,1.37,0,0,1-.48.19c-.22.05-.36.05-.41,0h-5.69l.54.62H406a3,3,0,0,1,.94.11,1.34,1.34,0,0,1,.56.54l1.81,2.58a1.57,1.57,0,0,1,.26.81,4.3,4.3,0,0,1,0,.63,8.46,8.46,0,0,1-.18.87c-.07.3-.16.61-.25.92s-.17.59-.25.85a2.76,2.76,0,0,1-.55.92,1.18,1.18,0,0,1-.83.27h-4.54Zm2.76-5.24a1.12,1.12,0,0,0,.85-.25,4.2,4.2,0,0,0,.58-1.28,16.39,16.39,0,0,0,.5-1.68,6,6,0,0,0,.15-1.29,1,1,0,0,0-.23-.73,1.26,1.26,0,0,0-.77-.19h-.31l-4,.12.46-1.7a1.69,1.69,0,0,0,0-.42c0-.33-.27-.63-.81-.88l-1.77-.77h7.19a1.86,1.86,0,0,0,.85-.14,1.26,1.26,0,0,0,.42-.59c.1-.26.21-.57.31-.93s.2-.71.29-1.05.16-.68.21-1a4.61,4.61,0,0,0,.07-.73.67.67,0,0,0-.23-.59,1.85,1.85,0,0,0-.88-.25c-.44-.05-1-.1-1.79-.14s-1.54-.05-2.36-.05h-2.31c-.8,0-1.54,0-2.21.08l-1.73.12-.87.09a1.39,1.39,0,0,0-.6.64,12,12,0,0,0-.63,1.71c-.13.44-.25.9-.37,1.38a5.87,5.87,0,0,0-.17,1c0,.41.24.61.73.61h1.5l-1,3.69a4.47,4.47,0,0,0-.81.06,1.34,1.34,0,0,0-.5.19,1,1,0,0,0-.3.43c-.07.19-.16.44-.26.75s-.15.58-.24.9-.17.63-.24.92-.13.57-.17.81a3.86,3.86,0,0,0-.06.52c0,.31.08.51.23.6a2.85,2.85,0,0,0,1.12.13L393.86,447c-.1.38-.18.7-.25.94s-.11.43-.13.56a2.85,2.85,0,0,0-.06.32,2.5,2.5,0,0,0,0,.25.72.72,0,0,0,.3.64,5.72,5.72,0,0,0,1.2.52c.52.15,1,.27,1.46.36a6.42,6.42,0,0,0,1.2.14,1.09,1.09,0,0,0,.57-.14,1.35,1.35,0,0,0,.46-.59,7.58,7.58,0,0,0,.49-1.39c.16-.61.37-1.45.63-2.5l.88-3.58Z" transform="translate(-128.29 -347.81)"/></g><path class="cls-2" d="M185.35,383a4,4,0,0,1,.72,1.22,3.3,3.3,0,0,1,.28,1.21c0,1.14-.66,3.67-2,7.57a5.44,5.44,0,0,1-.94,1.77,4.44,4.44,0,0,1-2,.56l-1,.1a37.24,37.24,0,0,1-3.6,8.89,26.6,26.6,0,0,1-5.37,6.66,22.78,22.78,0,0,1-6.87,4.19,22.06,22.06,0,0,1-8.09,1.47,18.17,18.17,0,0,1-10.52-3l-6.76-4.35a20.51,20.51,0,0,1-7-8.08,24.32,24.32,0,0,1-2.6-11.11,42.1,42.1,0,0,1,.67-7.27,55.74,55.74,0,0,1,1.88-7.62,58.71,58.71,0,0,1,2.93-7.38,47.46,47.46,0,0,1,3.83-6.61q9-12.93,24.15-12.93a24.18,24.18,0,0,1,9.8,1.82,15.44,15.44,0,0,1,6.59,5.25l5.32,7.88A14,14,0,0,1,187,371c0,2-.41,3.32-1.22,4.1s-2.48,1.39-5,1.86Zm-28.69,7.28a16.71,16.71,0,0,1-2.66,4.39,4,4,0,0,1-3,1.26,3.61,3.61,0,0,1-3.16-1.77,9.09,9.09,0,0,1-1.16-5,24.48,24.48,0,0,1,.39-4.09,47.13,47.13,0,0,1,1-4.64,45.74,45.74,0,0,1,1.61-4.7,39.62,39.62,0,0,1,2-4.34q4.1-7.58,8.75-7.58a3,3,0,0,1,2.16.81,2.12,2.12,0,0,1,.61,2v2.12a1.87,1.87,0,0,0,.66,2,6,6,0,0,0,3.22.61,32,32,0,0,0,4.76-.41,34.14,34.14,0,0,0,4.65-1,5.25,5.25,0,0,0,2.83-1.83,6.47,6.47,0,0,0,.72-3.45,13.57,13.57,0,0,0-4.66-10.76q-4.65-4-12.29-4.06-16.06,0-24.93,15.46a51.91,51.91,0,0,0-5,12.12,45.7,45.7,0,0,0-1.83,12.22,24.71,24.71,0,0,0,1.33,8.28,19,19,0,0,0,3.77,6.42,16.73,16.73,0,0,0,5.87,4.14,19.11,19.11,0,0,0,7.53,1.46,21.52,21.52,0,0,0,10.47-2.62,24.53,24.53,0,0,0,8.37-7.65,26,26,0,0,0,2.71-4.73,53.62,53.62,0,0,0,2.16-6.25,2.18,2.18,0,0,0,.67.1,3.74,3.74,0,0,0,2.27-.55,4.61,4.61,0,0,0,1.27-2.17c.59-1.94,1-3.47,1.33-4.58a11,11,0,0,0,.44-2.56,2.1,2.1,0,0,0-1.71-2.07,26.17,26.17,0,0,0-6.71-.55c-1.92,0-3.8.06-5.65.2s-3.5.32-5,.55a28.62,28.62,0,0,0-3.82.86,5,5,0,0,0-2.05,1,4.69,4.69,0,0,0-.94,1.67,22.18,22.18,0,0,0-.89,2.78c-.26,1-.48,2-.66,3.08a14.81,14.81,0,0,0-.28,2.57c0,1.15.4,1.72,1.22,1.72a3.77,3.77,0,0,0,.88-.1Zm10.86-15.66-1.5-.86a8.65,8.65,0,0,0-1.1-.55l-1-.41-1.28-.5c-.59.6-1,1.06-1.27,1.36a21.43,21.43,0,0,0-1.27,1.77c.81-.07,1.49-.15,2.05-.25a13.59,13.59,0,0,1,1.55-.21c.48,0,1-.08,1.6-.15S166.63,374.65,167.52,374.58Z" transform="translate(-128.29 -347.81)"/><path class="cls-2" d="M232.43,401.25a16.3,16.3,0,0,1,1.61,2.47,5.07,5.07,0,0,1,.28,1.87,15.27,15.27,0,0,1-.5,3.38,24.06,24.06,0,0,1-1.39,4.09,5.05,5.05,0,0,1-2,2.43,7.48,7.48,0,0,1-3.66.7h-7.53l-3.77-.1-2.76.1c-1.7,0-3,0-3.94-.05a15.71,15.71,0,0,1-2.21-.2,4.44,4.44,0,0,1-1.44-.5,13.24,13.24,0,0,1-1.5-1.06l-6.87-4.85a17.51,17.51,0,0,1-4.48-4.3,8,8,0,0,1-1.39-4.59,14.67,14.67,0,0,1,.44-3l1.78-7.48a3.21,3.21,0,0,1-2.66-3.53,15.66,15.66,0,0,1,.22-2.42c.15-.95.33-1.92.55-2.93s.47-2,.72-2.83a10.6,10.6,0,0,1,.84-2.12,5.31,5.31,0,0,1,2-2.33,8.82,8.82,0,0,1,3.32-.8l1.55-5.76c-2.88-.14-4.32-1.48-4.32-4a19.37,19.37,0,0,1,.78-4.29,47.59,47.59,0,0,1,1.77-5.51,10.16,10.16,0,0,1,1.44-2.68,5,5,0,0,1,2.88-1.41,35,35,0,0,1,6.15-.55c2.69-.07,6.41-.11,11.13-.11h1.22l13,.31c1.18,0,2.16,0,2.94.1a11.39,11.39,0,0,1,1.88.3,3.81,3.81,0,0,1,1.16.51,3.68,3.68,0,0,1,.89.91l5,6.66a9.47,9.47,0,0,1,.66,1.06,3.31,3.31,0,0,1,.11,1.06,18.19,18.19,0,0,1-.55,3.84,24.59,24.59,0,0,1-1.44,4.44,8.35,8.35,0,0,1-1.89,3.34,4.89,4.89,0,0,1-3,.7h-.94c-.33,0-1.24,0-2.71-.1l-2.66-.1-9.31-.1-1.55-.1a8.3,8.3,0,0,0-1.33.1l.67,1h4.87l3.38.2a10.43,10.43,0,0,1,2.33.41,4.64,4.64,0,0,1,1.55.81,7.91,7.91,0,0,1,1.16,1.21l3.66,5.25a8.1,8.1,0,0,1,1,1.26,2.62,2.62,0,0,1,.11,1,25.1,25.1,0,0,1-2,8.28,11.09,11.09,0,0,1-1.83,3.19,3.16,3.16,0,0,1-2.38.85h-1.22a4,4,0,0,0-.77-.1h-3.55Zm-15.62-30.61a5.37,5.37,0,0,0,.11-1.21c0-.81-.88-1.58-2.65-2.32l-3.88-1.72,20.16.2h2.11c1.91,0,3.17-.5,3.76-1.51a13.53,13.53,0,0,0,1.22-2.35,22.8,22.8,0,0,0,.94-2.86c.26-1,.48-2,.67-3a14.22,14.22,0,0,0,.27-2.56,4.26,4.26,0,0,0-.16-1.3,1.21,1.21,0,0,0-.78-.75,6,6,0,0,0-1.77-.35q-1.17-.1-3.27-.21l-12.29-.2q-5.55,0-9,0l-5.54.1a29.2,29.2,0,0,0-3.1.2,12.74,12.74,0,0,0-1.66.35,5.51,5.51,0,0,0-.94.45,2.26,2.26,0,0,0-.72.91,13.84,13.84,0,0,0-.72,1.8q-.39,1.16-1.05,3.06a35,35,0,0,0-.95,3.56,14.71,14.71,0,0,0-.38,2.66c0,1.21,1.07,1.81,3.21,1.81h1.88l-2.77,9.29a16.82,16.82,0,0,0-3.4.36,2.42,2.42,0,0,0-1.42,1.36,13.74,13.74,0,0,0-.79,1.87,25.8,25.8,0,0,0-.8,2.72c-.22,1-.41,1.92-.56,2.83a14.56,14.56,0,0,0-.23,2.28,2.37,2.37,0,0,0,.61,1.91,5,5,0,0,0,2.49.71l-2.32,9.6a8.47,8.47,0,0,0-.33,2.22,7.3,7.3,0,0,0,1.81,4.59,11.07,11.07,0,0,0,4.5,3.39,18.19,18.19,0,0,0,6.76,1.11h.88c.3,0,1.22,0,2.77-.1H220c1,0,1.86,0,2.49-.1a3.92,3.92,0,0,0,1.61-.51,2.79,2.79,0,0,0,1.05-1.21c.26-.54.57-1.25.94-2.12a28.85,28.85,0,0,0,1.11-3.59,14.12,14.12,0,0,0,.44-3.08,2.41,2.41,0,0,0-.77-2.07,5.62,5.62,0,0,0-3-.55h-1l-13.74.3,2.22-8.28,10.19.2h2.1a11.42,11.42,0,0,1,1.55.1h1.55a3.19,3.19,0,0,0,2.33-.76,10.05,10.05,0,0,0,1.77-3.18q.88-2.41,1.5-4.64a14.79,14.79,0,0,0,.61-3.64,1.49,1.49,0,0,0-1-1.57,17.13,17.13,0,0,0-4.43-.35H215.71Z" transform="translate(-128.29 -347.81)"/><path class="cls-2" d="M293.58,406.5c1.77,2.76,2.94,4.68,3.49,5.75a6,6,0,0,1,.83,2.43,3.21,3.21,0,0,1-1.33,2.37,19.31,19.31,0,0,1-4.32,2.58c-1.84.87-3.19,1.46-4,1.77a6.52,6.52,0,0,1-2,.45,3.26,3.26,0,0,1-2-.91l-7-5.15a9.29,9.29,0,0,1-1.78-1.62l-.44-.8-.77-1.32-4.77-7.67L267,413.26q-.78,2.83-3.22,2.83-8.41,0-12.52-2.82L245,408.92a4,4,0,0,1-2.1-3.33,6.16,6.16,0,0,1,.16-1.26c.11-.5.28-1.23.5-2.17l9.86-33.82-2.33.28a2.16,2.16,0,0,1-.66.1,4.24,4.24,0,0,1-3-1.11,4,4,0,0,1-1.16-3,13.82,13.82,0,0,1,.44-3.13c.3-1.21.65-2.42,1-3.64a22.15,22.15,0,0,1,1.39-3.28,7.78,7.78,0,0,1,1.44-2.07,9.75,9.75,0,0,1,3.38-1.72,50.79,50.79,0,0,1,5.48-1.46q3.11-.66,6.54-1.06a56.72,56.72,0,0,1,6.64-.41,34.84,34.84,0,0,1,13,2.28,19.11,19.11,0,0,1,8.7,6.41l6.09,8.28a11.91,11.91,0,0,1,1.88,4,17.11,17.11,0,0,1,.67,4.7,20,20,0,0,1-1.77,8.08,24,24,0,0,1-5,7.27,30.79,30.79,0,0,1-4,3.08,52,52,0,0,1-6,3.18Zm-14.18-18a56,56,0,0,0,6.7-3.69,24.36,24.36,0,0,0,4.6-4,22.08,22.08,0,0,0,4-6.71,21.11,21.11,0,0,0,1.44-7.53,14.64,14.64,0,0,0-2.44-8,17.87,17.87,0,0,0-6.89-6.11,20.28,20.28,0,0,0-6.22-2.32,38.81,38.81,0,0,0-7.77-.71,54.14,54.14,0,0,0-5.83.36c-2.18.23-4.31.56-6.38,1s-3.91.85-5.5,1.32a11,11,0,0,0-3.16,1.32,4.91,4.91,0,0,0-1.22,1.83,24.94,24.94,0,0,0-1.22,3.2c-.37,1.19-.71,2.37-1,3.56a12.32,12.32,0,0,0-.45,2.89c0,1.49.68,2.24,2,2.24a2.18,2.18,0,0,0,.56-.06c.15,0,.6-.16,1.35-.38l4.6-1L248,393.27c-.37,1.14-.74,2.39-1.12,3.73s-.7,2.63-1,3.84-.56,2.26-.79,3.13a10.25,10.25,0,0,0-.33,1.62q0,1.62,3.45,2.73a27.53,27.53,0,0,0,8.36,1.11,4.19,4.19,0,0,0,2.61-.61,5.52,5.52,0,0,0,1.29-2.73l4.12-14.44,11.63,19.9,1.22,1.92a7.18,7.18,0,0,0,.77,1.06,1.24,1.24,0,0,0,.67.4,5.27,5.27,0,0,0,.88.05,11.09,11.09,0,0,0,3.55-.86,27.29,27.29,0,0,0,4.54-2.17q3.44-1.92,3.44-3.63,0-1.21-3.44-6.77ZM270,373.27c.29-.95.51-1.74.66-2.38a7.69,7.69,0,0,0,.22-1.76,2.55,2.55,0,0,0-1.33-2.38,16.4,16.4,0,0,0-5.2-1.26l-4.66-.71q3.56-.9,6-1.31a29.36,29.36,0,0,1,4.71-.4,13,13,0,0,1,7,1.66,4.94,4.94,0,0,1,2.66,4.29,7.81,7.81,0,0,1-3.22,6.32,17.12,17.12,0,0,1-8.64,3.28Z" transform="translate(-128.29 -347.81)"/><path class="cls-2" d="M324,360.17q1.89-3.35,3.33-5.47a24.79,24.79,0,0,1,2.66-3.39,6.91,6.91,0,0,1,2.38-1.73,7.13,7.13,0,0,1,2.6-.45,19.49,19.49,0,0,1,2.55.2c1,.13,2.12.3,3.27.5s2.21.43,3.21.66a19.07,19.07,0,0,1,2.27.66,8.05,8.05,0,0,1,1.27.6,6.28,6.28,0,0,1,1.11.91,13.36,13.36,0,0,1,1.28,1.52l1.77,2.42c.74,1,1.31,1.82,1.72,2.43a9.19,9.19,0,0,1,.94,1.76,9.76,9.76,0,0,1,.5,1.82,25.82,25.82,0,0,1,.27,2.58,58,58,0,0,1,.28,5.8q.06,4.1.06,9.55,0,1.21-.06,3.18c0,1.31-.07,2.69-.11,4.14s-.08,2.81-.11,4.09-.06,2.26-.06,2.93l-.77,15.25a18,18,0,0,1-.44,3.39,3.52,3.52,0,0,1-1.17,1.92,4.87,4.87,0,0,1-2.27.9,23.17,23.17,0,0,1-3.88.26,19.31,19.31,0,0,1-4.15-.31,7.64,7.64,0,0,1-2.49-1.11l-6.87-4.85a4.88,4.88,0,0,1-2.33-4.94v-3.14h-.88l-4.66,9c-.59,1.15-1.09,2-1.49,2.68a12.36,12.36,0,0,1-1.11,1.52,2.19,2.19,0,0,1-1.05.7,5.18,5.18,0,0,1-1.33.15,11.93,11.93,0,0,1-2.66-.35c-1-.23-2.09-.52-3.16-.85a22.13,22.13,0,0,1-3-1.21,19.62,19.62,0,0,1-2.33-1.31L303,407.93a4.41,4.41,0,0,1-2.11-3.42,11.37,11.37,0,0,1,1.44-4.63l1.66-3.13a4.57,4.57,0,0,1-1.16-1.41,4,4,0,0,1-.28-1.61,13.84,13.84,0,0,1,.17-2,12.86,12.86,0,0,1,.5-2.12l1.44-4.13a10.79,10.79,0,0,1,2.71-4.73,6.58,6.58,0,0,1,4.49-1.41h1.22ZM312,380.94a5,5,0,0,0-3.48,1.06,9,9,0,0,0-2,4l-1.33,4.45a14.18,14.18,0,0,0-.66,3.23c0,1,.73,1.62,2.21,1.82l-2.44,4.64a9.47,9.47,0,0,0-1.43,4,2.5,2.5,0,0,0,.88,1.92,9.81,9.81,0,0,0,3.1,1.62,24.83,24.83,0,0,0,6.87,1.62,3.49,3.49,0,0,0,2.33-.76,11.1,11.1,0,0,0,2.1-3.08l5.32-10.1h3.1a17.77,17.77,0,0,0,2-.1,3.86,3.86,0,0,0,1.32-.41,3.23,3.23,0,0,0,1-.86,11,11,0,0,0,1-1.56l1.77-3.34-.88,15.36q-.22,3,1.38,4.19t5.82,1.16q2.43,0,3.93-.15a4.31,4.31,0,0,0,2.27-.76,3,3,0,0,0,1.05-1.82,19,19,0,0,0,.39-3.23l.77-16c.08-1.88.15-3.52.23-4.9s.12-2.62.16-3.73.06-2.14.06-3.08v-3q0-5.25-.06-8.84c0-2.39-.11-4.35-.22-5.86a22.34,22.34,0,0,0-.44-3.38,3.11,3.11,0,0,0-.72-1.52,5.72,5.72,0,0,0-1.93-.86c-1-.3-2.12-.6-3.37-.91s-2.53-.55-3.82-.75a20.61,20.61,0,0,0-3.25-.31,4.92,4.92,0,0,0-4.32,2.33c-.36.54-.88,1.33-1.54,2.37l-2.16,3.43q-1.16,1.88-2.32,3.84c-.77,1.31-1.49,2.58-2.15,3.79l-8.07,14.44Zm24.5-15.35-2.1,16.16-4.66-.2Z" transform="translate(-128.29 -347.81)"/><path class="cls-2" d="M381.43,360.17q1.88-3.35,3.32-5.47a25.6,25.6,0,0,1,2.66-3.39,7,7,0,0,1,2.38-1.73,7.16,7.16,0,0,1,2.6-.45,19.36,19.36,0,0,1,2.55.2c1,.13,2.12.3,3.27.5s2.22.43,3.21.66a18.51,18.51,0,0,1,2.27.66,8.21,8.21,0,0,1,1.28.6,7.09,7.09,0,0,1,1.11.91,13.36,13.36,0,0,1,1.27,1.52l1.77,2.42c.74,1,1.31,1.82,1.72,2.43a9.19,9.19,0,0,1,.94,1.76,9.76,9.76,0,0,1,.5,1.82c.11.64.2,1.5.28,2.58s.23,3.08.27,5.8.06,5.91.06,9.55q0,1.21-.06,3.18c0,1.31-.07,2.69-.11,4.14s-.07,2.81-.11,4.09-.05,2.26-.05,2.93l-.78,15.25a17.22,17.22,0,0,1-.44,3.39,3.46,3.46,0,0,1-1.17,1.92,4.87,4.87,0,0,1-2.27.9,23.12,23.12,0,0,1-3.87.26,19.35,19.35,0,0,1-4.16-.31,7.64,7.64,0,0,1-2.49-1.11l-6.87-4.85a4.9,4.9,0,0,1-2.33-4.94v-3.14h-.88l-4.65,9c-.6,1.15-1.09,2-1.5,2.68a11.39,11.39,0,0,1-1.11,1.52,2.19,2.19,0,0,1-1.05.7,5.13,5.13,0,0,1-1.33.15,12,12,0,0,1-2.66-.35c-1-.23-2.08-.52-3.15-.85a21.77,21.77,0,0,1-3.05-1.21,19.62,19.62,0,0,1-2.33-1.31l-6.09-4.64a4.43,4.43,0,0,1-2.1-3.42,11.48,11.48,0,0,1,1.43-4.63l1.67-3.13a4.79,4.79,0,0,1-1.17-1.41,4,4,0,0,1-.27-1.61,13.73,13.73,0,0,1,.16-2,12.86,12.86,0,0,1,.5-2.12l1.44-4.13a10.7,10.7,0,0,1,2.72-4.73,6.56,6.56,0,0,1,4.48-1.41h1.22Zm-12.1,20.77a5,5,0,0,0-3.48,1.06,9.11,9.11,0,0,0-2,4l-1.33,4.45a14.18,14.18,0,0,0-.66,3.23c0,1,.74,1.62,2.22,1.82l-2.44,4.64a9.52,9.52,0,0,0-1.44,4,2.5,2.5,0,0,0,.88,1.92,9.77,9.77,0,0,0,3.11,1.62,24.71,24.71,0,0,0,6.86,1.62,3.49,3.49,0,0,0,2.33-.76,11.29,11.29,0,0,0,2.11-3.08l5.31-10.1h3.1a17.64,17.64,0,0,0,2-.1,3.92,3.92,0,0,0,1.33-.41,3.2,3.2,0,0,0,1-.86,11,11,0,0,0,1-1.56l1.77-3.34-.88,15.36q-.22,3,1.38,4.19t5.82,1.16q2.43,0,3.93-.15a4.28,4.28,0,0,0,2.27-.76,3,3,0,0,0,1-1.82,19,19,0,0,0,.39-3.23l.78-16c.07-1.88.14-3.52.22-4.9s.13-2.62.17-3.73.05-2.14.05-3.08v-3q0-5.25-.05-8.84c0-2.39-.12-4.35-.23-5.86a21.11,21.11,0,0,0-.44-3.38,3,3,0,0,0-.72-1.52,5.72,5.72,0,0,0-1.93-.86c-1-.3-2.12-.6-3.37-.91s-2.52-.55-3.81-.75a20.83,20.83,0,0,0-3.26-.31,4.9,4.9,0,0,0-4.31,2.33c-.37.54-.89,1.33-1.55,2.37s-1.38,2.19-2.15,3.43-1.55,2.53-2.32,3.84-1.5,2.58-2.16,3.79l-8.06,14.44Zm24.5-15.35-2.1,16.16-4.65-.2Z" transform="translate(-128.29 -347.81)"/><path class="cls-2" d="M452.66,371.45a2.64,2.64,0,0,0-2,.81,3,3,0,0,0-.77,2.12,5.46,5.46,0,0,0,.88,2.72l4.66,7.58q4.1,6.87,4.09,12.53a19.59,19.59,0,0,1-2.1,8.78,16.3,16.3,0,0,1-5.65,6.57,20.46,20.46,0,0,1-7,3,38.36,38.36,0,0,1-9,1,52.08,52.08,0,0,1-8.53-.61,13.06,13.06,0,0,1-5.1-1.61l-7.31-5.53a5.28,5.28,0,0,1-1.61-1.71,6.32,6.32,0,0,1-.38-2.52,20.66,20.66,0,0,1,.22-2.82c.15-1.07.33-2.18.55-3.32s.48-2.25.78-3.32.59-2,.88-2.82a8,8,0,0,1,2.77-3.77,10.13,10.13,0,0,1,5.1-1,45.89,45.89,0,0,1,4.71.2,6.45,6.45,0,0,1,2.82.84,3.35,3.35,0,0,1,1.39,1.74,9.08,9.08,0,0,1,.38,2.88h.45q1.44,0,1.44-1.62,0-2.32-2.33-5.86l-3.88-6.26a37.47,37.47,0,0,1-3.32-6.21,14.18,14.18,0,0,1-1-5.1,14.89,14.89,0,0,1,2.27-7.93,21.56,21.56,0,0,1,6.26-6.42,33.05,33.05,0,0,1,9.36-4.29A41,41,0,0,1,453.1,348a40.37,40.37,0,0,1,7.86.7,12.05,12.05,0,0,1,2.77.86,4.79,4.79,0,0,1,1.67,1.57l5.2,7.37a4.72,4.72,0,0,1,1,2.73,10.74,10.74,0,0,1-.22,1.61c-.15.81-.33,1.69-.56,2.63s-.46,1.9-.72,2.88-.49,1.8-.72,2.47a4.07,4.07,0,0,1-2.49,2.53,16.29,16.29,0,0,1-5.93.81,35.33,35.33,0,0,1-4-.16,3.36,3.36,0,0,1-1.89-.65Zm-3.9-5.73a1.41,1.41,0,0,0,1,1.52,21.54,21.54,0,0,0,4.67.3,17.53,17.53,0,0,0,5.59-.61,4.65,4.65,0,0,0,2.5-2.32c.22-.54.48-1.27.77-2.18a28.72,28.72,0,0,0,.78-2.88c.22-1,.4-2,.55-2.94a15.27,15.27,0,0,0,.22-2.32q0-2.94-3.43-3.75a28,28,0,0,0-3.77-.65,38.71,38.71,0,0,0-4.43-.26,37.76,37.76,0,0,0-10.68,1.47,31,31,0,0,0-8.73,4,21.61,21.61,0,0,0-5.95,5.87,12.6,12.6,0,0,0-2.22,7.09,12.18,12.18,0,0,0,.89,4.5,37.38,37.38,0,0,0,2.8,5.42l4.7,7.28a22.51,22.51,0,0,1,1.68,3.55,9.24,9.24,0,0,1,.67,3.13,3.15,3.15,0,0,1-1.11,2.49,4.38,4.38,0,0,1-3,1c-.29,0-.64,0-1-.05s-.79-.09-1.16-.16l.33-2.92a1.78,1.78,0,0,0,.11-.56v-.45c0-.95-.74-1.52-2.21-1.72q-3.23-.3-5.43-.3a9.15,9.15,0,0,0-3.71.55,3.89,3.89,0,0,0-1.83,2.27c-.37.95-.72,2-1.05,3.08s-.61,2.23-.83,3.34-.41,2.17-.56,3.18a18.19,18.19,0,0,0-.22,2.63,4.33,4.33,0,0,0,3.21,4.44,24.21,24.21,0,0,0,4.93.86q3.49.35,7.15.35,10.64,0,16.72-5.16t6.1-14.16a19.38,19.38,0,0,0-1.12-6.38,33.64,33.64,0,0,0-3.66-7.18l-4-6.37a5.51,5.51,0,0,1-.89-2.94q0-3.24,5.67-3.34Z" transform="translate(-128.29 -347.81)"/></svg>