<?xml version="1.0" encoding="UTF-8"?><svg id="a" xmlns="http://www.w3.org/2000/svg" viewBox="0 0 393.92 278.5"><defs><style>.b{fill:#fff;}</style></defs><path d="M11.03,267c.59-2.44,1.06-4.65,1.67-6.82,7.64-27.1,15.31-54.19,23-81.27,2.26-7.89,4.86-15.68,7.25-23.53,.28-1.38,1.47-2.39,2.88-2.44,8.44-1.3,16.85-2.78,25.27-4.18,.63-.05,1.25-.05,1.88,0l-11.82,41.49c3.13-.23,5.95-.42,8.77-.66,4.91-.42,9.81-.95,14.73-1.29,1.42-.1,1.72-.84,2-2,3.39-13.02,6.82-26.04,10.28-39.05,.22-.79,1.18-1.89,1.88-2,9.9-1,19.81-1.78,29.72-2.62,.56-.05,1.13,0,2,0-1,4.18-2,8.2-2.88,12.24-5.59,25.07-11.17,50.15-16.74,75.24-2.21,10-4.25,20.08-6.31,30.13-.25,1.23-.58,1.85-2,1.87-10.93,.13-21.87,.34-32.81,.53-.31,0-.63-.08-1.24-.15,3.49-15.26,7-30.42,10.47-45.73-2.31,0-4.41-.13-6.48,0-5.49,.4-11,1-16.47,1.36-1.51-.11-2.84,.99-3,2.5-3.2,13.41-6.52,26.8-9.76,40.2-.85,3.55-.78,3.47-4.45,3.75-8.52,.67-17,1.44-25.55,2.17-.66,.15-1.29,.18-2.29,.26Z"/><path d="M282.54,214.53l35.79-6.19c.4,1.59,.64,3.05,1.12,4.42,2.21,6.3,7.13,9.15,13.35,10.24,4.37,.87,8.88,.73,13.19-.4,3-.83,5.25-2.41,5.73-5.72,.5-2.89-1.1-5.74-3.84-6.81-3.55-1.65-7.33-2.81-11-4.14-8-2.88-16.33-5.14-24-8.75-11.57-5.43-16.66-16.37-15.11-29.14,1.92-15.89,10.41-26.73,25.11-32.48,10-3.94,20.51-3.53,30.8-.76,13.45,3.63,23.78,11.29,29.67,24.25,.87,1.92,1.5,4,2.32,6.17l-25.67,5c-.32-.79-.64-1.53-.93-2.28-3.57-8.59-13.18-12.95-22-10-2.35,.69-4.08,2.69-4.44,5.11-.5,2.36,.67,4.76,2.84,5.81,3.27,1.69,6.63,3.19,10.07,4.5,7.92,3.18,16.21,5.6,23.72,9.53,12,6.25,16.77,17.06,16.3,30.33-.59,16.32-9.52,26.74-24,32.62-16.59,6.72-33.78,7.48-51,2.93-11.6-3.06-20.74-9.63-24.93-21.43-1.48-3.96-2.02-8.24-3.09-12.81Z"/><path d="M0,17.27l27.22-1.12c.28,16.94,.55,33.55,.82,50.15l.46,.12c2.56-5.28,5.19-10.53,7.66-15.86,5.07-10.95,10-22,15.14-32.9,.54-.9,1.48-1.49,2.52-1.61,5.51-.06,11,.13,16.53,.18,1.31,0,1.91,.4,2,1.8,.8,11.31,1.66,22.63,2.5,33.94l1,13.5,.77,.25,18.36-48.48,16.56,1.26c-1.16,3.58-2.17,6.84-3.27,10.06-8.44,24.64-18.16,48.82-29.13,72.44-.32,.7-1.13,1.65-1.73,1.66-7.31,.11-14.62,.07-22.29,.07-.64-15.48-1.29-31.35-1.94-47.22l-.53-.11c-2,4.25-4,8.54-6,12.76-5.61,11.33-11.27,22.65-17,33.95-.5,.96-1.4,1.65-2.45,1.9-8.21,.53-16.43,.87-24.64,1.25-.42,0-.84-.05-1.25-.11C.87,76,.44,46.8,0,17.27Z"/><path d="M282.7,50.82c2.49,13.39,4.94,26.54,7.44,39.95l-33.7,2.23c-1.44-11.87-2.86-23.58-4.3-35.54-3,.18-5.8,.23-8.54,.58-.57,.08-1.24,1.16-1.46,1.9-3.14,10.46-6.13,21-9.34,31.41-1.37,4.47-.22,4-5.55,4.57-9.06,1-18.1,2.06-27.4,3.14,.08-.55,.19-1.09,.33-1.63,6.32-21.08,12.77-42.12,18.93-63.24,3-10.4,5.58-20.95,8.26-31.45,.39-1.55,.87-2.37,2.69-2.37,17-.06,34.06-.71,51.06-.14,11.27,.38,20.79,6.3,22.54,17.62,1.43,8.08-.85,16.37-6.21,22.58-3.91,4.68-9.08,7.75-14.75,10.39Zm-34.67-13.44c4.65-.2,9.05-.27,13.43-.64,3.88-.32,7.67-1.22,10.6-4.05,2.63-2.41,3.56-6.16,2.35-9.52-1-3.25-3.94-4.06-6.92-4.1-4.6-.07-9.2,.1-13.8,.28-.66,.12-1.22,.56-1.49,1.18-1.42,5.47-2.73,10.95-4.17,16.85Z"/><path d="M393.92,117.48c-3.25,0-6.3,.36-9.23-.07-7.06-1-14.08-2.39-21.09-3.77-.71-.13-1.47-1.16-1.79-1.94-5-12.07-9.89-24.16-14.82-36.25-.18-.44-.45-.83-.79-1.47-3.66,4.16-7.21,8.13-10.64,12.21-.42,.78-.61,1.66-.55,2.55-.4,6.64-.76,13.27-1.14,20.16l-30.07-4.28c2.72-32.17,5.43-64.23,8.16-96.58l28.05,2.59c-1,13.52-2,26.89-3,40.86,.81-.91,1.25-1.34,1.63-1.82,9.02-11.42,18.02-22.85,27-34.29,.69-1.12,2.01-1.7,3.3-1.45,7.65,1,15.32,2,23,2.94,.3,0,.6,.13,1.29,.28-2.38,3.22-4.56,6.26-6.85,9.22-6,7.73-12,15.44-18.1,23.1-.91,.95-1.09,2.38-.45,3.53,5.17,12,10.4,23.94,15.38,36,3.6,8.72,6.85,17.59,10.24,26.4,.19,.68,.35,1.38,.47,2.08Z"/><path d="M106.23,106.63c4.41-29.07,8.81-58,13.29-87.53l79.23,7.4c-.68,7.11-1.31,13.69-2,20.44l-49-5c-.54,4.26-1.07,8.37-1.63,12.8l39.83,3.93-2.2,19.37-40.19-3.82-1.94,14.12,50,4.74c-.69,5.67-1.28,11-2,16.39-.59,4.27-.66,4.14-5.07,3.71-9.66-.92-19.32-1.79-29-2.55-15.82-1.26-31.64-2.42-47.46-3.64-.63-.08-1.25-.2-1.86-.36Z"/><path d="M225.2,169.37c-2.59,6.62-5.23,13.16-7.71,19.75-4.93,13.14-10,26.23-14.56,39.51-2.75,8.06-4.72,16.38-4.06,25.13,.4,5.11-.48,10.25-2.57,14.93-2.76,6.17-7.64,9.34-14.25,9.74-16.44,1-39.25-9.15-42.39-35.34-.92-7.65-1-15.4-1.46-23.11-.91-16.59-1.79-33.17-2.66-49.76v-2.68c4.14,1.16,8.07,2.25,12,3.37,3,.86,6,1.85,9,2.58,1.34,.17,2.3,1.37,2.18,2.72,.66,10.83,1.37,21.67,2.06,32.5,.64,10,1.25,20,2,30,.21,2.21,.58,4.4,1.1,6.56,1.37,5.91,7.2,9.64,13.14,8.4,2.17-.4,3.9-2.07,4.37-4.23,.42-1.75,.64-3.55,.66-5.35,.31-9.94-.41-19.89-2.14-29.69-2.7-14.52,1.89-27.43,8.9-39.77,.36-.6,.95-1.03,1.64-1.19,11.4-1.52,22.81-3,34.22-4.41-.01-.03,.07,.09,.53,.34Z"/><path d="M282.8,139.05c-7,41.4-14,82.33-21,123.65l-39.57-1.45c1-5.45,1.85-10.61,2.84-15.74,4.2-21.76,8.33-43.54,12.69-65.27,2.57-12.79,5.5-25.51,8.36-38.24,.16-.71,1.09-1.74,1.7-1.77,11.72-.47,23.35-.81,34.98-1.18Z"/><path class="b" d="M248.03,37.38c1.44-5.9,2.75-11.39,4.17-16.85,.27-.62,.83-1.06,1.49-1.18,4.6-.18,9.2-.35,13.8-.28,3,0,5.91,.85,6.92,4.1,1.21,3.36,.28,7.11-2.35,9.52-2.93,2.83-6.72,3.73-10.6,4.05-4.38,.37-8.78,.44-13.43,.64Z"/></svg>